<svg id="visual" viewBox="0 0 1200 600" width="1200" height="600" xmlns="http://www.w3.org/2000/svg" xmlns:xlink="http://www.w3.org/1999/xlink" version="1.1"><rect x="0" y="0" width="1200" height="600" fill="#FFFCF9"></rect><path d="M0 494L28.5 489.3C57 484.7 114 475.3 171.2 480C228.3 484.7 285.7 503.3 342.8 514C400 524.7 457 527.3 514.2 522C571.3 516.7 628.7 503.3 685.8 503.7C743 504 800 518 857.2 516.7C914.3 515.3 971.7 498.7 1028.8 488.7C1086 478.7 1143 475.3 1171.5 473.7L1200 472L1200 601L1171.5 601C1143 601 1086 601 1028.8 601C971.7 601 914.3 601 857.2 601C800 601 743 601 685.8 601C628.7 601 571.3 601 514.2 601C457 601 400 601 342.8 601C285.7 601 228.3 601 171.2 601C114 601 57 601 28.5 601L0 601Z" fill="#fb923c" stroke-linecap="round" stroke-linejoin="miter"></path></svg>